<svg xmlns="http://www.w3.org/2000/svg" xmlns:xlink="http://www.w3.org/1999/xlink" version="1.1" id="Layer_1" x="0px" y="0px" style="enable-background:new 0 0 1080 1080;" xml:space="preserve" viewBox="666.91 445.24 15.62 15.56">
<style type="text/css">
	.st0{fill:none;stroke:#61AADC;stroke-miterlimit:10;}
</style>
<g id="Group_3069" transform="translate(95.5 0.5)">
	<g id="Group_3107" transform="translate(-95 0)">
		<path id="Rectangle_762" class="st0" d="M675.89,451.58h4.64c0.55,0,1,0.45,1,1v6.22c0,0.55-0.45,1-1,1h-4.64c-0.55,0-1-0.45-1-1    v-6.22C674.89,452.03,675.34,451.58,675.89,451.58z"/>
		<path id="Rectangle_763" class="st0" d="M667.91,445.24h4.64c0.55,0,1,0.45,1,1v6.22c0,0.55-0.45,1-1,1h-4.64c-0.55,0-1-0.45-1-1    v-6.22C666.91,445.69,667.36,445.24,667.91,445.24z"/>
		<path id="Rectangle_764" class="st0" d="M667.91,454.87h4.64c0.55,0,1,0.45,1,1v2.93c0,0.55-0.45,1-1,1h-4.64c-0.55,0-1-0.45-1-1    v-2.93C666.91,455.31,667.36,454.87,667.91,454.87z"/>
		<path id="Rectangle_765" class="st0" d="M675.89,445.24h4.64c0.55,0,1,0.45,1,1v2.93c0,0.55-0.45,1-1,1h-4.64c-0.55,0-1-0.45-1-1    v-2.93C674.89,445.69,675.34,445.24,675.89,445.24z"/>
	</g>
</g>
</svg>