<svg xmlns="http://www.w3.org/2000/svg" xmlns:xlink="http://www.w3.org/1999/xlink" version="1.1" id="Layer_1" x="0px" y="0px" style="enable-background:new 0 0 1080 1080;" xml:space="preserve" viewBox="399.57 687.14 18.59 15.46">
<style type="text/css">
	.st0{clip-path:url(#SVGID_00000047767192679225965530000003474495031793569968_);}
	.st1{fill:none;stroke:#61AADC;stroke-linecap:round;stroke-linejoin:round;}
</style>
<g>
	<defs>
		<rect id="SVGID_1_" x="399.72" y="687.33" width="18.23" height="15.09"/>
	</defs>
	<clipPath id="SVGID_00000005232460003516395050000003226534135438966960_">
		<use xlink:href="#SVGID_1_" style="overflow:visible;"/>
	</clipPath>
	
		<g id="Group_3061" transform="translate(0 0)" style="clip-path:url(#SVGID_00000005232460003516395050000003226534135438966960_);">
		<path id="Path_3014" class="st1" d="M409.12,689.67c0-1.11-0.9-2.02-2.01-2.02c-0.79,0-1.51,0.46-1.84,1.18    c-0.45-1.02-1.65-1.47-2.66-1.02c-1.02,0.45-1.47,1.65-1.02,2.66c0.08,0.18,0.19,0.35,0.32,0.5c0.07,0.08,0.14,0.16,0.22,0.22    l3.08,3.05c0.04,0.04,0.1,0.04,0.14,0l3.18-3.17l0,0C408.91,690.71,409.12,690.2,409.12,689.67L409.12,689.67z"/>
		<path id="Path_3015" class="st1" d="M417.62,696.43l0.01-0.02c-1.27,0-2.05-0.77-2.98-1.43c-0.73-0.56-1.62-0.87-2.54-0.88    c-0.49,0-0.91,0-1.26,0.02h-2.58c-0.38,0-0.68,0.31-0.68,0.68c0,0.38,0.31,0.68,0.68,0.68l0,0h2.43c0.56,0.09,0.94,0.62,0.85,1.18    c-0.05,0.31-0.24,0.58-0.52,0.74l-0.94,0.25c-0.32,0.08-0.62,0.16-0.91,0.24l-0.06,0.02c-1.07,0.28-2.21,0.58-2.42,0.63    c-0.13,0.01-0.25,0-0.37-0.03l-3.82-2.47l-0.69-0.5l0,0c-0.03-0.02-0.07-0.04-0.1-0.06c-0.05-0.03-0.1-0.05-0.16-0.07    c-0.04-0.01-0.09-0.02-0.13-0.03c-0.05-0.01-0.1-0.01-0.15-0.01c-0.07,0-0.13,0.01-0.2,0.02c-0.57,0.05-1.01,0.52-1.01,1.09    c0,0.29,0.12,0.57,0.33,0.78l0,0h0.01c0.08,0.08,0.17,0.15,0.27,0.2l0.26,0.19l5.99,4.34l0,0l0.07,0.03    c0.14,0.05,0.28,0.08,0.43,0.08c0.09,0,0.17-0.01,0.26-0.03l0.03-0.01c2.03-0.52,6.22-1.58,8.18-2.07l0.14-0.05    c0.53-0.15,1.07-0.24,1.61-0.28v-0.29h0.01l-0.01-0.39C417.62,698.99,417.62,696.43,417.62,696.43z"/>
	</g>
</g>
</svg>