<svg xmlns="http://www.w3.org/2000/svg" xmlns:xlink="http://www.w3.org/1999/xlink" version="1.1" id="Layer_1" x="0px" y="0px" style="enable-background:new 0 0 1080 1080;" xml:space="preserve" viewBox="382.14 689.75 16.52 16.52">
<style type="text/css">
	.st0{clip-path:url(#SVGID_00000100376085346550301050000009257928455293118644_);}
	.st1{fill:none;stroke:#61AADC;stroke-linecap:round;stroke-linejoin:round;}
	.st2{enable-background:new    ;}
	.st3{fill:#61AADC;}
	.st4{fill:none;stroke:#61AADC;stroke-width:0.7;stroke-linecap:round;stroke-linejoin:round;}
</style>
<g id="Group_3064" transform="translate(0 0)">
	<g>
		<defs>
			<rect id="SVGID_1_" x="382.3" y="689.92" width="16.2" height="16.2"/>
		</defs>
		<clipPath id="SVGID_00000013161395273450723340000017227697489488375485_">
			<use xlink:href="#SVGID_1_" style="overflow:visible;"/>
		</clipPath>
		<g id="Group_3063" style="clip-path:url(#SVGID_00000013161395273450723340000017227697489488375485_);">
			<rect id="Rectangle_758" x="382.64" y="690.25" class="st1" width="15.52" height="15.52"/>
		</g>
	</g>
</g>
<g class="st2">
	<path class="st3" d="M385.71,693.46h2.24v0.59h-1.6v1.16h1.47v0.55h-1.47v1.77h-0.65V693.46z"/>
</g>
<g class="st2">
	<path class="st3" d="M388.5,693.46h1.35c1.16,0,1.99,0.83,1.99,2.04c0,1.21-0.83,2.04-1.99,2.04h-1.35V693.46z M389.83,696.92   c0.87,0,1.34-0.57,1.34-1.42c0-0.85-0.47-1.42-1.34-1.42h-0.68v2.85H389.83z"/>
</g>
<g class="st2">
	<path class="st3" d="M393.86,693.46l1.59,4.07h-0.7l-0.32-0.83h-1.82l-0.32,0.83h-0.7l1.59-4.07H393.86z M394.21,696.1l-0.69-1.82   l-0.69,1.82H394.21z"/>
</g>
<g class="st2">
	<path class="st3" d="M385.88,700.23h0.71c0.61,0,1.04,0.44,1.04,1.07c0,0.63-0.43,1.07-1.04,1.07h-0.71V700.23z M386.58,702.05   c0.45,0,0.7-0.3,0.7-0.75c0-0.44-0.25-0.75-0.7-0.75h-0.36v1.49H386.58z"/>
	<path class="st3" d="M387.89,700.23h0.34v2.13h-0.34V700.23z"/>
</g>
<g class="st2">
	<path class="st3" d="M388.31,701.3c0-0.66,0.5-1.1,1.09-1.1c0.28,0,0.62,0.09,0.85,0.44l-0.25,0.17c-0.16-0.22-0.38-0.29-0.59-0.29   c-0.42,0-0.75,0.3-0.75,0.77c0,0.47,0.34,0.77,0.76,0.77c0.21,0,0.43-0.08,0.59-0.29l0.25,0.17c-0.23,0.35-0.57,0.44-0.85,0.44   C388.81,702.4,388.31,701.96,388.31,701.3z"/>
</g>
<g class="st2">
	<path class="st3" d="M390.44,701.3c0-0.66,0.5-1.1,1.09-1.1c0.59,0,1.09,0.44,1.09,1.1s-0.5,1.1-1.09,1.1   C390.94,702.4,390.44,701.96,390.44,701.3z M391.53,702.07c0.4,0,0.74-0.3,0.74-0.77s-0.35-0.77-0.74-0.77   c-0.4,0-0.74,0.3-0.74,0.77S391.13,702.07,391.53,702.07z"/>
	<path class="st3" d="M392.92,700.23h0.38l0.76,1.7l0.76-1.7h0.38v2.13h-0.34v-1.47h-0.02l-0.66,1.47h-0.25l-0.65-1.47h-0.02v1.47   h-0.34V700.23z"/>
</g>
<line id="Line_6" class="st4" x1="385.81" y1="699.03" x2="394.99" y2="699.03"/>
</svg>