<svg xmlns="http://www.w3.org/2000/svg" xmlns:xlink="http://www.w3.org/1999/xlink" version="1.1" id="Layer_1" x="0px" y="0px" style="enable-background:new 0 0 1080 1080;" xml:space="preserve" viewBox="551.42 418.49 246.6 64.6">
<style type="text/css">
	.st0{fill:#61AADC;}
	.st1{fill:#3E64AA;}
	.st2{fill:#FFFFFF;}
	.st3{fill:none;}
</style>
<g id="Group_3096" transform="translate(-300 -42)">
	<path id="Path_2969" class="st0" d="M860.79,503.08l-1.4-1.4l8.91-8.91l-16.88-16.88l1.4-1.4l18.27,18.28L860.79,503.08z"/>
	<path id="Path_2970" class="st1" d="M874.91,488.95l-10.31-10.31l1.4-1.4l8.91,8.91l16.88-16.88l1.4,1.4L874.91,488.95z"/>
	<path id="Path_2971" class="st0" d="M875.04,480.16l-18.28-18.27l1.4-1.4l16.88,16.88l8.91-8.91l1.4,1.4L875.04,480.16z"/>
	<path id="Path_2972" class="st0" d="M891.79,525.09l-16.88-16.88l-8.91,8.91l-1.4-1.4l10.31-10.31l18.28,18.28L891.79,525.09z"/>
	<path id="Path_2973" class="st0" d="M897.13,511.09l-18.28-18.27l10.31-10.31l1.4,1.4l-8.91,8.91l16.87,16.87L897.13,511.09z"/>
	<path id="Path_2974" class="st1" d="M858.16,516.3l-1.4-1.4l18.28-18.28l10.31,10.31l-1.4,1.4l-8.91-8.91L858.16,516.3z"/>
	<path id="Path_2975" class="st2" d="M924.69,497l-8.1,11.95h-5.98l11.09-16.39l-10.69-15.76h6.02l7.65,11.32l7.7-11.32h5.98   l-10.69,15.76l11.14,16.39h-6.02L924.69,497z"/>
	<path id="Path_2976" class="st2" d="M942.17,485.4h4.98v3.76h0.14c0.86-1.86,3.85-4.21,8.15-4.21c5.57,0,11.41,4.12,11.41,12.23   c0,8.11-5.84,12.23-11.41,12.23c-4.3,0-7.29-2.36-8.15-4.21h-0.14v12.36h-4.98V485.4z M954.48,504.88c4.01,0.09,7.34-3.09,7.44-7.1   c0-0.2,0-0.4-0.01-0.6c0.12-4.11-3.12-7.54-7.24-7.66c-4.11-0.12-7.54,3.12-7.66,7.24c0,0.14,0,0.28,0,0.42   c-0.23,4.01,2.83,7.46,6.85,7.69C954.06,504.88,954.27,504.88,954.48,504.88"/>
	<path id="Path_2977" class="st2" d="M989.26,508.95v-3.76h-0.14c-0.86,1.86-3.85,4.21-8.15,4.21c-5.57,0-11.41-4.12-11.41-12.23   c0-8.11,5.84-12.23,11.41-12.23c4.3,0,7.29,2.35,8.15,4.21h0.14V476.8h4.98v32.15H989.26z M981.92,504.87   c4.02,0.11,7.37-3.05,7.48-7.07c0.01-0.21,0-0.42-0.01-0.63c0.12-4.11-3.12-7.54-7.24-7.66s-7.54,3.12-7.66,7.24   c0,0.14,0,0.28,0,0.42c-0.24,4.01,2.82,7.45,6.83,7.69C981.52,504.87,981.72,504.88,981.92,504.87"/>
	<path id="Path_2978" class="st2" d="M999.22,476.8h4.98v4.48h-4.98V476.8z M999.22,485.4h4.98v23.55h-4.98V485.4z"/>
	<path id="Path_2979" class="st2" d="M1011.31,503.24v-13.81h-3.26v-4.03h3.26v-6.02h5.03v6.02h4.76v4.03h-4.76v12.9   c0,1.36,0.72,2.4,2.58,2.4c0.74-0.01,1.48-0.15,2.17-0.41v3.94c-1.09,0.7-2.38,1.03-3.67,0.95   C1013.84,509.22,1011.31,507.45,1011.31,503.24"/>
	<path id="Path_2980" class="st2" d="M1023.81,497.17c0-7.92,5.84-12.23,11.82-12.23c5.98,0,12.5,4.26,11.36,14.13h-18.47   c0.77,4.08,3.98,6.16,8.02,6.16c2.41,0.07,4.75-0.81,6.52-2.44l2.35,2.44c-2.35,2.74-5.81,4.27-9.42,4.17   C1029.6,509.4,1023.81,505.01,1023.81,497.17 M1042.55,495.36c-0.27-4.07-3.53-6.16-6.88-6.16c-3.62-0.1-6.73,2.56-7.2,6.16   H1042.55z"/>
	<path id="Path_2981" class="st0" d="M1050.79,502.56l1.63-0.86c1.27,3.57,4.72,5.91,8.51,5.75c4.53,0,8.56-2.76,8.56-8.2   c0-6.07-5.03-9.19-10.73-7.92l8.29-12.63h-14.35v-1.9h17.7l-8.42,12.68c5.19-0.13,9.51,3.97,9.65,9.16c0.01,0.19,0,0.38,0,0.58   c0,6.29-4.84,10.19-10.73,10.19C1055.72,509.4,1052.01,506.46,1050.79,502.56"/>
	<path id="Path_2982" class="st0" d="M1087.38,496.95c-0.29,0.04-0.57,0.05-0.86,0.05H1079v11.95h-2.13V476.8h9.65   c6.75,0,10.64,4.39,10.64,10.1c0,4.94-2.72,8.69-7.61,9.78l8.47,12.27h-2.45L1087.38,496.95z M1086.25,494.96   c5.39,0,8.69-2.94,8.69-8.06c0-5.16-3.31-8.06-8.69-8.06H1079v16.12H1086.25z"/>
	<rect id="Rectangle_754" x="851.42" y="460.49" class="st3" width="246.6" height="69.06"/>
</g>
</svg>