<svg xmlns="http://www.w3.org/2000/svg" xmlns:xlink="http://www.w3.org/1999/xlink" version="1.1" id="Layer_1" x="0px" y="0px" style="enable-background:new 0 0 1080 1080;" xml:space="preserve" viewBox="551.42 418.43 246.6 69.06">
<style type="text/css">
	.st0{fill:#5472A8;}
	.st1{fill:#61AADC;}
	.st2{fill:#3E64AA;}
	.st3{fill:#00001A;}
	.st4{fill:none;}
</style>
<g id="Group_3096" transform="translate(-300 -42)">
	<path id="Path_2945" class="st0" d="M914.87,524.22h-1.7l-0.51,2.88h-0.97l1.43-8.12h2.58c1.14-0.14,2.18,0.67,2.32,1.81   c0.03,0.28,0.01,0.56-0.07,0.83c-0.17,1.16-1.01,2.11-2.13,2.45l1.46,3.03h-1.06L914.87,524.22z M914.82,523.36   c1.06,0.09,2.01-0.67,2.15-1.73c0.2-1.14-0.42-1.73-1.54-1.73h-1.5l-0.61,3.45H914.82z"/>
	<path id="Path_2946" class="st0" d="M918.24,524.13c0.25-1.73,1.71-3.04,3.46-3.09c1.49,0,2.85,1.09,2.2,3.44h-4.82   c-0.12,0.93,0.53,1.78,1.47,1.91c0.13,0.02,0.27,0.02,0.4,0c0.69,0,1.36-0.26,1.87-0.72l0.39,0.49c-0.66,0.67-1.56,1.05-2.5,1.05   c-1.33,0.09-2.47-0.91-2.56-2.24C918.13,524.7,918.16,524.41,918.24,524.13 M923.19,523.76c0.18-0.84-0.35-1.66-1.19-1.84   c-0.14-0.03-0.29-0.04-0.44-0.03c-1.12,0.02-2.08,0.79-2.36,1.88H923.19z"/>
	<path id="Path_2947" class="st0" d="M925.94,518.99h0.95l-1.43,8.12h-0.95L925.94,518.99z"/>
	<path id="Path_2948" class="st0" d="M927.84,521.16h0.95l-1.05,5.95h-0.95L927.84,521.16z M928.22,518.99h0.95l-0.16,0.89h-0.95   L928.22,518.99z"/>
	<path id="Path_2949" class="st0" d="M929.3,524.13c0.24-1.72,1.68-3.03,3.41-3.09c0.86-0.08,1.67,0.43,1.98,1.23h0.03l0.2-1.12   h0.95l-1.05,5.95h-0.95l0.2-1.12h-0.03c-0.55,0.78-1.46,1.24-2.41,1.23c-1.31,0.04-2.4-0.99-2.44-2.29   C929.19,524.66,929.23,524.39,929.3,524.13 M931.95,526.34c1.26-0.02,2.32-0.96,2.49-2.21c0.28-0.9-0.22-1.85-1.11-2.13   c-0.2-0.06-0.4-0.09-0.6-0.08c-1.25,0.03-2.3,0.96-2.47,2.21c-0.29,0.89,0.2,1.84,1.1,2.13   C931.54,526.32,931.74,526.35,931.95,526.34"/>
	<path id="Path_2950" class="st0" d="M938.53,518.99l-0.58,3.29h0.03c0.55-0.78,1.46-1.24,2.41-1.23c1.31-0.04,2.4,0.99,2.44,2.29   c0.01,0.27-0.03,0.54-0.11,0.79c-0.24,1.72-1.68,3.03-3.41,3.09c-0.86,0.08-1.67-0.43-1.98-1.23h-0.03l-0.2,1.12h-0.95l1.43-8.12   L938.53,518.99z M939.31,526.34c1.25-0.03,2.3-0.96,2.47-2.21c0.28-0.89-0.21-1.84-1.1-2.13c-0.19-0.06-0.4-0.09-0.6-0.08   c-1.26,0.02-2.32,0.96-2.49,2.21c-0.28,0.9,0.22,1.85,1.11,2.13C938.9,526.33,939.1,526.35,939.31,526.34"/>
	<path id="Path_2951" class="st0" d="M944.68,518.99h0.95l-1.43,8.12h-0.95L944.68,518.99z"/>
	<path id="Path_2952" class="st0" d="M945.77,524.13c0.25-1.73,1.71-3.04,3.46-3.09c1.49,0,2.85,1.09,2.2,3.44h-4.82   c-0.12,0.93,0.53,1.78,1.47,1.91c0.13,0.02,0.27,0.02,0.4,0c0.69,0,1.36-0.26,1.87-0.72l0.39,0.49c-0.66,0.67-1.56,1.05-2.5,1.05   c-1.33,0.08-2.47-0.92-2.56-2.25C945.66,524.69,945.7,524.4,945.77,524.13 M950.73,523.76c0.18-0.84-0.35-1.66-1.19-1.84   c-0.14-0.03-0.29-0.04-0.44-0.03c-1.12,0.02-2.08,0.79-2.36,1.88H950.73z"/>
	<path id="Path_2953" class="st0" d="M957.63,524.22h-1.7l-0.51,2.88h-0.97l1.43-8.12h2.58c1.14-0.14,2.18,0.67,2.32,1.81   c0.03,0.28,0.01,0.56-0.07,0.83c-0.17,1.16-1.01,2.12-2.13,2.45l1.46,3.03h-1.06L957.63,524.22z M957.58,523.36   c1.06,0.09,2.01-0.67,2.15-1.73c0.2-1.14-0.42-1.73-1.54-1.73h-1.5l-0.61,3.45H957.58z"/>
	<path id="Path_2954" class="st0" d="M960.99,524.13c0.24-1.72,1.68-3.03,3.42-3.09c0.86-0.08,1.67,0.43,1.98,1.23h0.03l0.2-1.12   h0.95l-1.06,5.95h-0.95l0.2-1.12h-0.03c-0.55,0.78-1.46,1.24-2.41,1.23c-1.31,0.04-2.4-0.99-2.44-2.29   C960.87,524.66,960.91,524.39,960.99,524.13 M963.63,526.34c1.26-0.02,2.32-0.96,2.49-2.21c0.28-0.9-0.22-1.85-1.11-2.13   c-0.19-0.06-0.4-0.09-0.6-0.08c-1.25,0.03-2.3,0.96-2.47,2.21c-0.29,0.89,0.2,1.84,1.1,2.13   C963.23,526.32,963.43,526.35,963.63,526.34"/>
	<path id="Path_2955" class="st0" d="M972.66,527.11l0.2-1.12h-0.03c-0.55,0.78-1.46,1.24-2.41,1.23c-1.31,0.04-2.4-0.99-2.44-2.29   c-0.01-0.27,0.03-0.54,0.11-0.79c0.24-1.72,1.68-3.03,3.41-3.09c0.86-0.08,1.67,0.43,1.98,1.24h0.03l0.58-3.29h0.95l-1.43,8.12   L972.66,527.11z M970.72,526.34c1.26-0.02,2.32-0.96,2.49-2.21c0.28-0.9-0.22-1.85-1.11-2.13c-0.19-0.06-0.4-0.09-0.6-0.08   c-1.25,0.03-2.3,0.96-2.47,2.21c-0.29,0.89,0.2,1.84,1.1,2.13C970.32,526.32,970.52,526.35,970.72,526.34"/>
	<path id="Path_2956" class="st0" d="M975.99,521.16h0.95l-1.05,5.95h-0.95L975.99,521.16z M976.37,518.99h0.95l-0.16,0.89h-0.95   L976.37,518.99z"/>
	<path id="Path_2957" class="st0" d="M977.45,524.13c0.29-1.76,1.8-3.06,3.58-3.09c1.35-0.08,2.5,0.95,2.58,2.3   c0.02,0.27-0.01,0.53-0.08,0.79c-0.29,1.76-1.8,3.06-3.58,3.09c-1.35,0.08-2.5-0.95-2.58-2.3   C977.35,524.66,977.38,524.39,977.45,524.13 M980.1,526.34c1.25-0.04,2.3-0.97,2.48-2.21c0.28-0.9-0.23-1.86-1.14-2.13   c-0.18-0.06-0.37-0.08-0.56-0.07c-1.25,0.04-2.3,0.97-2.48,2.21c-0.28,0.9,0.23,1.86,1.14,2.13   C979.72,526.32,979.91,526.35,980.1,526.34"/>
	<path id="Path_2958" class="st0" d="M985.49,518.99h0.95l-1.43,8.12h-0.95L985.49,518.99z"/>
	<path id="Path_2959" class="st0" d="M986.57,524.13c0.29-1.76,1.8-3.06,3.58-3.09c1.35-0.08,2.5,0.95,2.58,2.3   c0.02,0.27-0.01,0.53-0.08,0.79c-0.29,1.76-1.8,3.06-3.58,3.09c-1.35,0.08-2.5-0.95-2.58-2.3   C986.48,524.66,986.5,524.39,986.57,524.13 M989.22,526.34c1.25-0.04,2.3-0.97,2.48-2.21c0.28-0.9-0.23-1.86-1.14-2.13   c-0.18-0.06-0.37-0.08-0.56-0.07c-1.25,0.04-2.3,0.97-2.48,2.21c-0.28,0.9,0.23,1.86,1.14,2.13   C988.84,526.32,989.03,526.35,989.22,526.34"/>
	<path id="Path_2960" class="st0" d="M993.92,529.07l0.14-0.81c0.45,0.29,0.98,0.42,1.51,0.4c1.19,0.12,2.27-0.7,2.48-1.88l0.14-0.8   h-0.06c-0.54,0.78-1.44,1.24-2.39,1.23c-1.31,0.04-2.4-1-2.44-2.31c-0.01-0.26,0.03-0.53,0.11-0.78c0.24-1.72,1.68-3.02,3.41-3.09   c0.86-0.08,1.66,0.43,1.95,1.24h0.06l0.2-1.12h0.95l-0.99,5.62c-0.26,1.66-1.75,2.84-3.43,2.71   C995,529.52,994.42,529.37,993.92,529.07 M996.06,526.34c1.26-0.03,2.31-0.96,2.49-2.21c0.28-0.9-0.22-1.85-1.11-2.13   c-0.2-0.06-0.4-0.09-0.6-0.08c-1.25,0.03-2.3,0.96-2.47,2.21c-0.29,0.89,0.2,1.84,1.1,2.13   C995.66,526.32,995.86,526.35,996.06,526.34"/>
	<path id="Path_2961" class="st0" d="M1002.24,527.05l-1.43-5.89h0.98l1.11,4.76l2.79-4.76h0.98l-3.54,5.95l-1.32,2.17h-0.93   L1002.24,527.05z"/>
	<path id="Path_2962" class="st0" d="M1012.14,524.22h-1.7l-0.51,2.88h-0.97l1.43-8.12h2.58c1.14-0.14,2.18,0.67,2.32,1.81   c0.03,0.28,0.01,0.56-0.07,0.83c-0.17,1.16-1.01,2.11-2.13,2.45l1.46,3.03h-1.06L1012.14,524.22z M1012.09,523.36   c1.06,0.09,2.01-0.67,2.15-1.73c0.2-1.14-0.42-1.73-1.54-1.73h-1.5l-0.61,3.45H1012.09z"/>
	<path id="Path_2963" class="st0" d="M1015.5,524.13c0.25-1.73,1.71-3.04,3.46-3.09c1.48,0,2.85,1.09,2.2,3.44h-4.82   c-0.12,0.93,0.53,1.78,1.47,1.91c0.13,0.02,0.27,0.02,0.4,0c0.69,0,1.36-0.26,1.87-0.72l0.39,0.49c-0.66,0.67-1.56,1.05-2.5,1.05   c-1.33,0.08-2.47-0.92-2.56-2.25C1015.4,524.69,1015.43,524.4,1015.5,524.13 M1020.47,523.76c0.18-0.84-0.35-1.66-1.19-1.84   c-0.14-0.03-0.29-0.04-0.44-0.03c-1.12,0.02-2.08,0.79-2.36,1.88H1020.47z"/>
	<path id="Path_2964" class="st0" d="M1021.54,525.61l0.83-0.22c-0.01,0.56,0.45,1.03,1.01,1.03c0.03,0,0.05,0,0.08,0   c0.59,0.05,1.13-0.34,1.27-0.93c0.09-0.49-0.21-0.74-0.83-1.03l-0.49-0.21c-0.9-0.4-1.2-0.98-1.08-1.66   c0.23-0.96,1.11-1.61,2.09-1.55c0.79-0.09,1.51,0.48,1.6,1.28c0,0.02,0,0.03,0,0.05l-0.79,0.23c-0.04-0.46-0.45-0.8-0.91-0.77   c-0.49-0.04-0.94,0.29-1.05,0.78c-0.07,0.38,0.12,0.67,0.68,0.93l0.44,0.19c0.86,0.37,1.46,0.78,1.29,1.76   c-0.24,1.08-1.24,1.82-2.34,1.73c-0.86,0.12-1.65-0.49-1.76-1.34C1021.54,525.79,1021.53,525.7,1021.54,525.61"/>
	<path id="Path_2965" class="st0" d="M1031.61,527.11h-0.95l0.17-0.97c-0.5,0.69-1.3,1.1-2.15,1.09c-1.23,0-2.15-0.78-1.83-2.56   l0.62-3.5h0.95l-0.59,3.36c-0.21,1.2,0.38,1.82,1.31,1.82c1.03-0.01,1.89-0.79,1.99-1.82l0.59-3.36h0.94L1031.61,527.11z"/>
	<path id="Path_2966" class="st0" d="M1034.37,518.99h0.95l-1.43,8.12h-0.95L1034.37,518.99z"/>
	<path id="Path_2967" class="st0" d="M1035.94,525.9l0.7-3.95h-0.79l0.14-0.79h0.79l0.27-1.52h0.95l-0.27,1.52h1.16l-0.14,0.79   h-1.16l-0.66,3.76c-0.06,0.37,0.08,0.6,0.51,0.6c0.19,0,0.37-0.04,0.55-0.1l-0.14,0.77c-0.25,0.15-0.54,0.22-0.82,0.21   C1036.24,527.18,1035.78,526.79,1035.94,525.9"/>
	<path id="Path_2968" class="st0" d="M1038.81,525.61l0.83-0.22c-0.01,0.56,0.45,1.03,1.01,1.03c0.03,0,0.05,0,0.08,0   c0.59,0.05,1.13-0.34,1.27-0.93c0.09-0.49-0.21-0.74-0.83-1.03l-0.49-0.21c-0.9-0.4-1.2-0.98-1.08-1.66   c0.23-0.96,1.11-1.61,2.09-1.55c0.79-0.09,1.51,0.48,1.6,1.28c0,0.02,0,0.03,0,0.05l-0.79,0.23c-0.04-0.46-0.45-0.8-0.91-0.77   c-0.49-0.04-0.94,0.29-1.05,0.78c-0.07,0.38,0.12,0.67,0.68,0.93l0.44,0.19c0.86,0.37,1.46,0.78,1.29,1.76   c-0.24,1.08-1.24,1.82-2.34,1.73c-0.86,0.12-1.65-0.49-1.76-1.34C1038.81,525.79,1038.81,525.7,1038.81,525.61"/>
	<path id="Path_2969" class="st1" d="M860.79,503.02l-1.4-1.4l8.91-8.91l-16.88-16.88l1.4-1.4l18.27,18.28L860.79,503.02z"/>
	<path id="Path_2970" class="st2" d="M874.91,488.89l-10.31-10.31l1.4-1.4l8.91,8.91l16.88-16.88l1.4,1.4L874.91,488.89z"/>
	<path id="Path_2971" class="st1" d="M875.04,480.1l-18.28-18.27l1.4-1.4l16.88,16.88l8.91-8.91l1.4,1.4L875.04,480.1z"/>
	<path id="Path_2972" class="st1" d="M891.79,525.03l-16.88-16.88l-8.91,8.91l-1.4-1.4l10.31-10.3l18.28,18.28L891.79,525.03z"/>
	<path id="Path_2973" class="st1" d="M897.13,511.02l-18.28-18.27l10.31-10.31l1.4,1.4l-8.91,8.91l16.87,16.87L897.13,511.02z"/>
	<path id="Path_2974" class="st2" d="M858.16,516.24l-1.4-1.4l18.28-18.28l10.31,10.31l-1.4,1.4l-8.91-8.91L858.16,516.24z"/>
	<path id="Path_2975" class="st3" d="M924.69,496.93l-8.1,11.95h-5.98l11.09-16.39l-10.69-15.76h6.02l7.65,11.32l7.7-11.32h5.98   l-10.69,15.76l11.14,16.39h-6.02L924.69,496.93z"/>
	<path id="Path_2976" class="st3" d="M942.17,485.34h4.98v3.76h0.14c0.86-1.86,3.85-4.21,8.15-4.21c5.57,0,11.41,4.12,11.41,12.23   c0,8.11-5.84,12.23-11.41,12.23c-4.3,0-7.29-2.36-8.15-4.21h-0.14v12.36h-4.98V485.34z M954.48,504.81   c4.01,0.09,7.34-3.09,7.44-7.1c0-0.2,0-0.4-0.01-0.6c0.12-4.11-3.12-7.54-7.24-7.66c-4.11-0.12-7.54,3.12-7.66,7.24   c0,0.14,0,0.28,0,0.42c-0.23,4.01,2.83,7.46,6.85,7.69C954.06,504.82,954.27,504.82,954.48,504.81"/>
	<path id="Path_2977" class="st3" d="M989.26,508.88v-3.76h-0.14c-0.86,1.86-3.85,4.21-8.15,4.21c-5.57,0-11.41-4.12-11.41-12.23   s5.84-12.23,11.41-12.23c4.3,0,7.29,2.35,8.15,4.21h0.14v-12.36h4.98v32.15H989.26z M981.92,504.81c4.02,0.11,7.37-3.05,7.48-7.07   c0.01-0.21,0-0.42-0.01-0.63c0.12-4.11-3.12-7.54-7.24-7.66c-4.11-0.12-7.54,3.12-7.66,7.24c0,0.14,0,0.28,0,0.42   c-0.24,4.01,2.82,7.45,6.83,7.69C981.52,504.81,981.72,504.81,981.92,504.81"/>
	<path id="Path_2978" class="st3" d="M999.22,476.73h4.98v4.48h-4.98V476.73z M999.22,485.33h4.98v23.55h-4.98V485.33z"/>
	<path id="Path_2979" class="st3" d="M1011.31,503.18v-13.81h-3.26v-4.03h3.26v-6.02h5.03v6.02h4.76v4.03h-4.76v12.9   c0,1.36,0.72,2.4,2.58,2.4c0.74-0.01,1.48-0.15,2.17-0.41v3.94c-1.09,0.7-2.38,1.03-3.67,0.95   C1013.84,509.16,1011.31,507.39,1011.31,503.18"/>
	<path id="Path_2980" class="st3" d="M1023.81,497.11c0-7.92,5.84-12.23,11.82-12.23c5.98,0,12.5,4.26,11.36,14.13h-18.47   c0.77,4.07,3.98,6.16,8.02,6.16c2.41,0.07,4.75-0.81,6.52-2.45l2.35,2.45c-2.35,2.74-5.81,4.27-9.42,4.17   C1029.6,509.34,1023.81,504.95,1023.81,497.11 M1042.55,495.3c-0.27-4.07-3.53-6.16-6.88-6.16c-3.62-0.1-6.73,2.56-7.2,6.16   H1042.55z"/>
	<path id="Path_2981" class="st1" d="M1050.79,502.5l1.63-0.86c1.27,3.57,4.72,5.91,8.51,5.75c4.53,0,8.56-2.76,8.56-8.2   c0-6.07-5.03-9.19-10.73-7.92l8.29-12.63h-14.35v-1.9h17.7l-8.42,12.68c5.19-0.13,9.51,3.97,9.65,9.16c0.01,0.19,0,0.38,0,0.58   c0,6.29-4.84,10.19-10.73,10.19C1055.72,509.34,1052.01,506.39,1050.79,502.5"/>
	<path id="Path_2982" class="st1" d="M1087.38,496.89c-0.29,0.04-0.57,0.05-0.86,0.05H1079v11.95h-2.13v-32.15h9.65   c6.75,0,10.64,4.39,10.64,10.1c0,4.94-2.72,8.69-7.61,9.78l8.47,12.27h-2.45L1087.38,496.89z M1086.25,494.89   c5.39,0,8.69-2.94,8.69-8.06c0-5.16-3.31-8.06-8.69-8.06H1079v16.12H1086.25z"/>
	<rect id="Rectangle_754" x="851.42" y="460.43" class="st4" width="246.6" height="69.06"/>
</g>
</svg>