<svg xmlns="http://www.w3.org/2000/svg" xmlns:xlink="http://www.w3.org/1999/xlink" version="1.1" id="Layer_1" x="0px" y="0px" style="enable-background:new 0 0 1080 1080;" xml:space="preserve" viewBox="651.74 431.11 45.85 43.8">
<style type="text/css">
	.st0{fill:#61AADC;}
</style>
<path id="Path_2995" class="st0" d="M674.07,456.75h-1.97c0.02,0.22,0.04,0.44,0.05,0.66c-0.34-0.2-0.66-0.43-0.98-0.66h-1.82  c-0.37,0.01-0.71,0.21-0.89,0.54c0.09,0.06,0.18,0.13,0.27,0.2c0.53,0.44,1.09,0.85,1.67,1.23h3.85  C674.19,458.06,674.13,457.41,674.07,456.75 M689.12,443.28v-0.74c0.09-6.22-4.87-11.33-11.08-11.43c-2.12,0.01-4.2,0.63-5.98,1.79  c-1.49,0.94-2.72,2.23-3.59,3.76c-0.72-0.23-1.47-0.34-2.23-0.32c-4.09,0.07-7.45,3.26-7.73,7.35c-4.06,1.28-6.8,5.06-6.77,9.32  c0,4.57,2.79,8.65,6.7,9.8h10.83c0.37,0,0.71-0.21,0.89-0.53c-0.64-0.45-1.3-0.91-1.91-1.43h-9.42c-2.95-0.9-5.1-4.17-5.1-7.76  c-0.02-3.6,2.47-6.73,5.98-7.52c0.47-0.14,0.8-0.57,0.8-1.06v-0.16c-0.05-3.2,2.5-5.83,5.7-5.88c0.01,0,0.03,0,0.04,0  c0.8,0,1.58,0.16,2.31,0.49c0.48,0.22,1.05,0.01,1.27-0.47c0-0.01,0.01-0.02,0.01-0.03c2.12-4.54,7.53-6.5,12.07-4.38  c3.3,1.54,5.36,4.91,5.23,8.54c-0.02,0.52-0.07,1.04-0.17,1.55c0,0.29,0.09,0.57,0.24,0.82c0.22,0.19,0.5,0.3,0.79,0.32h0.17  c4.16,0.08,7.48,3.52,7.41,7.68c0.14,4.05-2.97,7.48-7.01,7.75h-0.96v-2.94c0-0.36-0.18-0.69-0.48-0.88  c-0.02,0.22-0.06,0.44-0.1,0.66c-0.24,0.95-0.62,1.86-1.12,2.71c-0.12,0.23-0.25,0.45-0.36,0.67v0.77c0,0.58,0.46,1.05,1.04,1.06  h1.99c5.18-0.31,9.17-4.69,9-9.88C697.64,448.02,693.99,443.86,689.12,443.28 M672.1,456.75c0.02,0.22,0.04,0.44,0.05,0.66  c-0.34-0.2-0.66-0.43-0.98-0.66h-1.82c-0.37,0.01-0.71,0.21-0.89,0.54c0.09,0.06,0.18,0.13,0.27,0.2c0.53,0.44,1.09,0.85,1.67,1.23  h3.85c-0.06-0.66-0.13-1.3-0.18-1.96L672.1,456.75z M674.07,456.75h-1.98c0.02,0.22,0.04,0.44,0.05,0.66  c-0.34-0.2-0.66-0.43-0.98-0.66h-1.82c-0.37,0.01-0.71,0.21-0.89,0.54c0.09,0.06,0.18,0.13,0.27,0.2c0.53,0.44,1.09,0.85,1.67,1.23  h3.85C674.19,458.06,674.13,457.41,674.07,456.75"/>
<path id="Path_2998" class="st0" d="M674.25,458.71h-3.85c0.83,0.55,1.71,1,2.64,1.36c0.53,0.14,1.07-0.17,1.22-0.7  c0.02-0.09,0.03-0.18,0.03-0.27C674.27,458.97,674.26,458.84,674.25,458.71 M688.68,452.4c-0.17-0.92-0.74-1.73-1.56-2.2  c-1.47-0.77-3.28-0.39-4.32,0.91c-0.6-0.94-1.68-1.46-2.79-1.35c-0.5,0.05-0.99,0.19-1.45,0.4c-0.01-1.25-0.09-2.51-0.23-3.75  c-0.19-1.76-0.88-4.16-3.03-4.08c-3.8,0.16-3.55,6.38-3.52,8.99c0.02,1.81,0.13,3.61,0.29,5.42c0.02,0.22,0.04,0.44,0.05,0.66  c-0.34-0.2-0.66-0.43-0.98-0.66c-1.07-0.87-2.24-1.61-3.47-2.22c-1.85-0.77-4.36-0.66-4.88,1.77c-0.41,1.94,1.33,3.3,2.62,4.54  c0.23,0.21,0.43,0.42,0.62,0.63c0.47,0.5,0.98,0.94,1.55,1.32c1.03,0.63,1.95,1.42,2.72,2.35c1.71,2.43,2.34,5.85,2.59,8.76  c0.01,0.55,0.44,0.99,0.99,1.01c2.51,0.01,5.02,0.01,7.53,0.01h0.07c0.02,0,0.05,0,0.07-0.01c0.05,0,0.11-0.01,0.16-0.02  c0.8-0.01,1.5-0.52,1.76-1.28c0.14-0.63,0.17-1.28,0.09-1.92c0-0.81,0.11-1.61,0.32-2.39c0.69-2.28,1.66-4.46,2.87-6.51  c0.01-0.01,0.01-0.02,0.02-0.02c0.36-0.68,0.73-1.35,1.07-2.02c0.65-1.21,1.07-2.53,1.23-3.89  C689.22,455.36,689.08,453.85,688.68,452.4 M687.01,457.59c-0.24,0.95-0.62,1.86-1.12,2.71c-0.12,0.23-0.24,0.45-0.36,0.67  c-0.85,1.46-1.62,2.96-2.31,4.5c-0.65,1.39-1.13,2.86-1.43,4.37c-0.13,0.74-0.18,1.49-0.15,2.24c0.01,0.27,0.02,0.54,0.01,0.8  c-0.03,0.01-0.08,0.02-0.13,0.03c-2.24,0-4.47,0-6.72-0.01c-0.25-2.74-1.01-5.42-2.23-7.88c-0.55-1.07-1.36-1.99-2.35-2.68  c-0.03-0.02-0.05-0.04-0.07-0.06c-0.64-0.45-1.3-0.91-1.9-1.43c-0.21-0.18-0.42-0.38-0.61-0.58c-0.9-0.83-1.75-1.71-2.55-2.63  c-0.77-1.08,0.06-1.72,1.15-1.47c0.81,0.22,1.57,0.6,2.23,1.13c0.09,0.06,0.18,0.13,0.27,0.2c0.53,0.44,1.09,0.84,1.67,1.22  c0.83,0.55,1.71,1,2.64,1.36c0.53,0.14,1.07-0.17,1.22-0.7c0.02-0.09,0.03-0.18,0.03-0.27c-0.02-0.13-0.02-0.26-0.04-0.39  c-0.06-0.66-0.13-1.3-0.18-1.96c-0.14-1.62-0.24-3.24-0.28-4.87c-0.18-2.12,0-4.25,0.54-6.3c0.16-0.49,0.4-1.11,0.95-1.19  c0.72-0.1,0.9,0.93,1.01,1.49c0.18,1.15,0.26,2.31,0.26,3.48c0.05,1.07,0.04,2.15-0.03,3.22c0,0.11-0.02,0.24-0.02,0.35  c0,0.55,0.44,0.99,0.99,0.99c0.54,0,0.99-0.44,0.99-0.99c0-0.63,1.08-1.04,1.57-1.12c0.92-0.15,1.47,0.61,1.57,1.48  c0.1,0.88,1.4,1.55,1.84,0.51c0.23-0.74,0.71-1.38,1.36-1.8c1.1-0.53,1.78,0.11,2.02,1.1c0.33,1.25,0.43,2.54,0.3,3.82  C687.09,457.15,687.06,457.37,687.01,457.59"/>
</svg>