<svg xmlns="http://www.w3.org/2000/svg" xmlns:xlink="http://www.w3.org/1999/xlink" version="1.1" id="Layer_1" x="0px" y="0px" style="enable-background:new 0 0 1080 1080;" xml:space="preserve" viewBox="652.14 430.47 45.16 45.09">
<style type="text/css">
	.st0{fill:#61AADC;}
</style>
<path id="Path_2999" class="st0" d="M665.16,445.99c-1.98,0.05-3.63-1.52-3.68-3.51c-0.05-1.98,1.52-3.63,3.51-3.68  c1.98-0.05,3.63,1.52,3.68,3.51c0,0.03,0,0.06,0,0.09C668.67,444.35,667.11,445.95,665.16,445.99 M665.16,440.85  c-0.85,0.01-1.52,0.7-1.51,1.55c0,0,0,0,0,0c0,0.84,0.68,1.51,1.51,1.51c0.84,0,1.51-0.68,1.51-1.51c0,0,0,0,0,0  C666.68,441.55,666.01,440.86,665.16,440.85C665.16,440.85,665.16,440.85,665.16,440.85"/>
<path id="Path_3000" class="st0" d="M681.9,475.56h-15.3c-0.32,0-0.62-0.15-0.8-0.41c-0.17-0.27-0.23-0.59-0.16-0.9l2.87-9.8  c0.13-0.43,0.51-0.72,0.96-0.74h9.56c0.44,0.01,0.83,0.31,0.96,0.74l2.87,9.8c0.07,0.31,0.01,0.63-0.16,0.9  C682.51,475.41,682.21,475.56,681.9,475.56 M667.94,473.52h12.59l-2.23-7.76h-8.12L667.94,473.52z"/>
<path id="Path_3001" class="st0" d="M675.28,460.94c-0.01,0.57-0.49,1.02-1.06,1.01c-0.57-0.01-1.02-0.49-1.01-1.06  c0.01-0.56,0.47-1.01,1.04-1.01C674.82,459.9,675.28,460.37,675.28,460.94"/>
<path id="Path_3002" class="st0" d="M686.68,475.56h-24.87c-0.59,0-1.06-0.48-1.06-1.06c0-0.59,0.48-1.06,1.06-1.06h24.87  c0.57,0.02,1.03,0.48,1.04,1.06C687.68,475.06,687.24,475.51,686.68,475.56"/>
<path id="Path_3003" class="st0" d="M659.9,458.9h-6.7c-0.59,0-1.06-0.48-1.06-1.06c0-0.59,0.48-1.06,1.06-1.06h6.7  c0.59,0.06,1.01,0.59,0.95,1.18C660.79,458.45,660.4,458.85,659.9,458.9"/>
<path id="Path_3004" class="st0" d="M696.24,458.9h-30.61c-0.59,0-1.06-0.48-1.06-1.06c0-0.59,0.48-1.06,1.06-1.06h30.61  c0.59,0,1.06,0.48,1.06,1.06C697.3,458.43,696.83,458.9,696.24,458.9L696.24,458.9"/>
<path id="Path_3005" class="st0" d="M692.1,458.9c-0.57-0.02-1.03-0.49-1.04-1.06v-21.07h-32.84v21.15c0,0.57-0.46,1.04-1.04,1.04  c-0.57,0-1.04-0.46-1.04-1.04l0,0v-22.14c0-0.57,0.46-1.04,1.04-1.06h34.91c0.57,0.02,1.03,0.49,1.04,1.06v22.14  C693.07,458.45,692.63,458.87,692.1,458.9"/>
<path id="Path_3006" class="st0" d="M693.85,465.76h-38.26c-1.87-0.03-3.36-1.56-3.35-3.43V433.9c-0.01-1.87,1.48-3.4,3.35-3.43  h38.26c1.87,0.04,3.36,1.56,3.35,3.43v28.43C697.21,464.2,695.72,465.73,693.85,465.76 M655.59,432.43  c-0.75,0.03-1.34,0.64-1.35,1.39v28.42c0.01,0.75,0.61,1.36,1.35,1.39h38.26c0.75-0.03,1.34-0.64,1.35-1.39V433.9  c-0.01-0.75-0.61-1.36-1.35-1.39h-38.26V432.43z"/>
<path id="Path_3007" class="st0" d="M669.14,452.12h-7.97c-0.57-0.02-1.03-0.49-1.04-1.06v-2.04c-0.02-2.8,2.22-5.09,5.02-5.15  c2.8,0.02,5.04,2.31,5.02,5.11c0,0.01,0,0.03,0,0.04v2.04C670.17,451.63,669.72,452.1,669.14,452.12 M662.21,450.08h5.98v-1.06  c0.04-1.67-1.28-3.06-2.95-3.11c-1.67-0.04-3.06,1.28-3.11,2.95c0,0.05,0,0.1,0,0.16v1.06L662.21,450.08z"/>
<path id="Path_3008" class="st0" d="M677.86,445.99c-1.98,0.05-3.63-1.52-3.68-3.51c-0.05-1.98,1.52-3.63,3.51-3.68  c1.98-0.05,3.63,1.52,3.68,3.51c0,0.03,0,0.06,0,0.09C681.38,444.35,679.82,445.95,677.86,445.99 M677.86,440.85  c-0.85,0.01-1.52,0.7-1.51,1.55c0,0,0,0,0,0c0,0.84,0.68,1.51,1.51,1.51c0.84,0,1.51-0.68,1.51-1.51c0,0,0,0,0,0  C679.39,441.55,678.71,440.86,677.86,440.85C677.87,440.85,677.87,440.85,677.86,440.85"/>
<path id="Path_3009" class="st0" d="M681.85,452.12h-7.97c-0.57-0.02-1.03-0.49-1.04-1.06v-2.04c-0.02-2.8,2.22-5.09,5.02-5.15  c2.8,0.02,5.04,2.31,5.02,5.11c0,0.01,0,0.03,0,0.04v2.04C682.88,451.63,682.42,452.1,681.85,452.12 M674.91,450.08h5.98v-1.06  c0.03-1.67-1.3-3.05-2.97-3.08c-1.67-0.03-3.05,1.3-3.08,2.97c0,0.04,0,0.07,0,0.11v1.06L674.91,450.08z"/>
</svg>