<svg xmlns="http://www.w3.org/2000/svg" xmlns:xlink="http://www.w3.org/1999/xlink" version="1.1" id="Layer_1" x="0px" y="0px" style="enable-background:new 0 0 1080 1080;" xml:space="preserve" viewBox="652.14 430.47 45.16 45.09">
<style type="text/css">
	.st0{fill:#61AADC;}
</style>
<path id="Path_2984" class="st0" d="M674.64,448.53c-1.25-0.01-2.25-1.04-2.23-2.28c0,0,0,0,0-0.01c0.03-1.23,1.05-2.21,2.29-2.18  c1.23,0.03,2.21,1.05,2.18,2.29C676.84,447.56,675.85,448.53,674.64,448.53 M674.64,445.99c-0.14,0-0.25,0.1-0.25,0.24  c0,0.14,0.1,0.25,0.24,0.25c0.14,0,0.25-0.1,0.25-0.24c0,0,0,0,0-0.01c0.02-0.12-0.06-0.23-0.18-0.24  C674.68,445.99,674.66,445.99,674.64,445.99"/>
<path id="Path_2985" class="st0" d="M674.64,454c-4.18-0.05-7.54-3.48-7.49-7.66c0-0.01,0-0.01,0-0.02v-5.64  c0-0.58,0.46-1.04,1.04-1.06h12.99c0.57,0.02,1.03,0.49,1.04,1.06v5.64C682.18,450.5,678.82,453.9,674.64,454 M669.14,441.75v4.57  c0,3.04,2.46,5.5,5.5,5.5s5.5-2.46,5.5-5.5l0,0v-4.57H669.14z"/>
<path id="Path_2986" class="st0" d="M674.64,449.83c-0.57-0.02-1.03-0.49-1.04-1.06v-1.31c-0.02-0.57,0.43-1.05,1-1.07  s1.05,0.43,1.07,1c0,0.02,0,0.04,0,0.06v1.31C675.65,449.33,675.21,449.79,674.64,449.83"/>
<path id="Path_2987" class="st0" d="M681.9,475.56h-15.3c-0.32,0-0.62-0.15-0.8-0.41c-0.17-0.27-0.23-0.59-0.16-0.9l2.87-9.8  c0.13-0.43,0.51-0.72,0.96-0.74h9.56c0.44,0.01,0.83,0.31,0.96,0.74l2.87,9.8c0.07,0.31,0.01,0.63-0.16,0.9  C682.51,475.41,682.21,475.56,681.9,475.56 M667.95,473.52h12.59l-2.24-7.76h-8.13L667.95,473.52z"/>
<path id="Path_2988" class="st0" d="M675.28,460.94c-0.01,0.57-0.49,1.03-1.06,1.01c-0.57-0.01-1.03-0.49-1.01-1.06  c0.01-0.56,0.47-1.01,1.04-1.01C674.82,459.9,675.28,460.36,675.28,460.94"/>
<path id="Path_2989" class="st0" d="M686.68,475.56h-24.87c-0.59,0-1.06-0.48-1.06-1.06c0-0.59,0.48-1.06,1.06-1.06h24.87  c0.57,0.02,1.03,0.49,1.04,1.06C687.68,475.06,687.24,475.52,686.68,475.56"/>
<path id="Path_2990" class="st0" d="M659.9,458.9h-6.7c-0.59,0-1.06-0.48-1.06-1.06c0-0.59,0.48-1.06,1.06-1.06h6.7  c0.59,0.06,1.01,0.59,0.95,1.18C660.79,458.45,660.4,458.85,659.9,458.9"/>
<path id="Path_2991" class="st0" d="M696.24,458.9h-30.61c-0.59,0-1.06-0.48-1.06-1.06c0-0.59,0.48-1.06,1.06-1.06h30.61  c0.59,0,1.06,0.48,1.06,1.06C697.3,458.42,696.83,458.9,696.24,458.9"/>
<path id="Path_2992" class="st0" d="M692.1,458.9c-0.57-0.02-1.03-0.49-1.04-1.06v-21.07h-11.48c0.42,0.84,0.64,1.76,0.64,2.7v1.31  c0,0.57-0.46,1.04-1.04,1.06h-9.16c-0.57-0.02-1.03-0.49-1.04-1.06v-1.31c0-0.94,0.22-1.86,0.64-2.7h-11.4v21.16  c0,0.57-0.46,1.04-1.04,1.06c-0.57-0.02-1.03-0.49-1.04-1.06v-22.14c0.01-0.57,0.46-1.04,1.04-1.06h14.59  c0.56-0.01,1.01,0.43,1.03,0.99c0.01,0.32-0.14,0.62-0.39,0.81c-0.87,0.73-1.36,1.81-1.36,2.94v0.24h7.26v-0.24  c0.01-1.13-0.49-2.21-1.35-2.94c-0.34-0.27-0.47-0.73-0.32-1.14c0.14-0.41,0.53-0.67,0.96-0.65h14.58c0.57,0.02,1.03,0.48,1.03,1.05  v22.14C693.09,458.45,692.64,458.85,692.1,458.9"/>
<path id="Path_2993" class="st0" d="M679.27,441.75h-9.25c-0.57-0.02-1.03-0.49-1.04-1.06v-1.31c-0.02-1.75,0.78-3.41,2.15-4.49  c2.05-1.63,4.96-1.63,7.01,0c1.36,1.1,2.15,2.75,2.15,4.49v1.31C680.3,441.26,679.84,441.73,679.27,441.75 M670.98,439.7h7.25v-0.24  c0.01-1.13-0.49-2.21-1.35-2.94c-0.64-0.51-1.42-0.79-2.23-0.82c-0.82-0.02-1.62,0.28-2.23,0.82c-0.87,0.73-1.36,1.81-1.36,2.94  v0.24H670.98z"/>
<path id="Path_2994" class="st0" d="M693.85,465.76h-38.25c-1.87-0.03-3.36-1.56-3.35-3.43V433.9c-0.01-1.87,1.48-3.4,3.35-3.43  h38.25c1.87,0.03,3.36,1.56,3.35,3.43v28.42C697.21,464.2,695.71,465.73,693.85,465.76 M655.59,432.43  c-0.75,0.03-1.34,0.64-1.35,1.39v28.42c0.01,0.75,0.61,1.36,1.35,1.39h38.25c0.75-0.03,1.34-0.64,1.35-1.39V433.9  c-0.01-0.75-0.61-1.36-1.35-1.39h-38.25V432.43z"/>
</svg>