<svg xmlns="http://www.w3.org/2000/svg" xmlns:xlink="http://www.w3.org/1999/xlink" version="1.1" id="Layer_1" x="0px" y="0px" style="enable-background:new 0 0 1080 1080;" xml:space="preserve" viewBox="653.08 430.8 43.28 44.44">
<style type="text/css">
	.st0{fill:#61AADC;}
</style>
<path id="Path_3010" class="st0" d="M676.75,475.24h-3.99c-0.48,0.01-0.89-0.34-0.96-0.82l-1.19-5.39  c-1.37-0.37-2.68-0.92-3.91-1.63l-4.62,2.94c-0.41,0.23-0.93,0.17-1.27-0.16l-2.79-2.86c-0.33-0.36-0.39-0.88-0.16-1.31l2.87-4.74  c-0.73-1.25-1.27-2.59-1.59-4l-5.26-1.23c-0.47-0.08-0.81-0.5-0.8-0.98v-4.08c-0.02-0.48,0.33-0.9,0.8-0.98l5.26-1.23  c0.36-1.39,0.9-2.74,1.59-4l-2.87-4.74c-0.23-0.43-0.16-0.95,0.16-1.31l2.79-2.86c0.34-0.33,0.86-0.4,1.27-0.16l4.62,3.02  c1.22-0.74,2.54-1.31,3.91-1.71l1.19-5.39c0.07-0.47,0.48-0.82,0.96-0.82h3.99c0.48-0.01,0.89,0.34,0.96,0.82l1.2,5.39  c1.37,0.4,2.68,0.98,3.9,1.71l4.62-3.02c0.41-0.23,0.93-0.17,1.27,0.16l2.79,2.86c0.33,0.36,0.39,0.88,0.16,1.31l-2.95,4.82  c0.72,1.25,1.25,2.6,1.6,4l5.26,1.22c0.47,0.08,0.81,0.5,0.8,0.98v4.08c0.02,0.48-0.33,0.9-0.8,0.98l-5.26,1.23  c-0.36,1.39-0.9,2.74-1.6,4l2.87,4.74c0.23,0.43,0.16,0.95-0.16,1.31l-2.79,2.86c-0.34,0.33-0.86,0.4-1.28,0.16l-4.54-3.02  c-1.21,0.74-2.52,1.29-3.9,1.63l-1.2,5.39C677.64,474.89,677.23,475.24,676.75,475.24 M673.57,473.19h2.39l1.11-5.23  c0.08-0.36,0.36-0.65,0.72-0.73c1.59-0.33,3.11-0.97,4.46-1.88c0.3-0.24,0.73-0.24,1.04,0l4.46,2.86l1.67-1.71l-2.79-4.57  c-0.24-0.31-0.24-0.75,0-1.06c0.89-1.4,1.51-2.95,1.83-4.57c0.08-0.36,0.36-0.65,0.72-0.74l5.1-1.14v-2.45l-5.1-1.14  c-0.36-0.08-0.64-0.37-0.72-0.74c-0.32-1.62-0.94-3.18-1.83-4.57c-0.24-0.31-0.24-0.75,0-1.06l2.79-4.57l-1.59-1.88l-4.46,2.86  c-0.3,0.25-0.73,0.25-1.04,0c-1.35-0.91-2.87-1.54-4.46-1.88c-0.36-0.09-0.64-0.37-0.72-0.74l-1.2-5.23h-2.39l-1.11,5.23  c-0.08,0.36-0.36,0.65-0.72,0.74c-1.58,0.37-3.09,1.01-4.46,1.88c-0.3,0.24-0.73,0.24-1.04,0l-4.54-2.86l-1.67,1.71l2.79,4.57  c0.24,0.31,0.24,0.75,0,1.06c-0.89,1.4-1.51,2.95-1.83,4.57c-0.08,0.36-0.36,0.65-0.72,0.73l-5.1,1.23v2.45l5.1,1.14  c0.36,0.08,0.64,0.37,0.72,0.74c0.32,1.62,0.95,3.18,1.83,4.57c0.24,0.31,0.24,0.75,0,1.06l-2.79,4.66l1.67,1.72l4.46-2.86  c0.3-0.24,0.73-0.24,1.04,0c1.35,0.91,2.87,1.54,4.46,1.88c0.36,0.08,0.64,0.37,0.72,0.73L673.57,473.19z"/>
<path id="Path_3011" class="st0" d="M674.76,458.16c-2.8,0.07-5.12-2.14-5.19-4.94c-0.07-2.8,2.14-5.12,4.94-5.19  c2.8-0.07,5.12,2.14,5.19,4.94c0,0.04,0,0.08,0,0.12C679.72,455.86,677.52,458.12,674.76,458.16 M674.76,450.08  c-1.65,0.02-2.97,1.36-2.95,3.01c0,0,0,0.01,0,0.01c0,1.63,1.32,2.95,2.95,2.95c1.63,0,2.95-1.32,2.95-2.95c0,0,0-0.01,0-0.01  c0.02-1.65-1.29-3-2.94-3.02C674.77,450.08,674.77,450.08,674.76,450.08"/>
<path id="Path_3012" class="st0" d="M665.28,454.16c-0.57-0.02-1.03-0.49-1.04-1.06c-0.05-5.83,4.61-10.61,10.44-10.7  c0.59,0,1.06,0.48,1.06,1.06c0,0.59-0.48,1.06-1.06,1.06c-4.72,0.06-8.5,3.94-8.45,8.66c0.03,0.51-0.37,0.95-0.88,0.98  C665.33,454.16,665.3,454.16,665.28,454.16"/>
<path id="Path_3013" class="st0" d="M674.76,463.8c-3.47-0.02-6.7-1.76-8.61-4.66c-0.32-0.43-0.24-1.03,0.19-1.35  c0.02-0.01,0.03-0.02,0.05-0.04c0.4-0.31,0.97-0.25,1.29,0.15c0.03,0.03,0.05,0.06,0.07,0.1c1.55,2.32,4.14,3.73,6.93,3.76  c4.8-0.14,8.58-4.15,8.44-8.95c-0.09-3.09-1.82-5.9-4.53-7.38c-0.48-0.29-0.65-0.89-0.4-1.39c0.26-0.48,0.87-0.67,1.35-0.41  c3.46,1.9,5.6,5.53,5.58,9.47c0.12,5.79-4.48,10.58-10.28,10.7C674.82,463.8,674.79,463.8,674.76,463.8"/>
</svg>